<svg xmlns="http://www.w3.org/2000/svg"><symbol id="icon-AFTER-EFECTS" viewBox="0 0 20 20"><path d="M7.84 10.4c0 .09 0 .09-.07.09H6c.33-1 .68-2.06 1-3.1 0 .08 0 .16.07.24s.09.33.13.49l.18.56c0 .19.11.37.17.56l.19.57z"/><path d="M15.08 9.77a1 1 0 0 0-.76-.67 1.7 1.7 0 0 0-.55 0 .93.93 0 0 0-.64.47c-.101.18-.17.376-.2.58H15c.1 0 .13 0 .12-.14a1 1 0 0 0-.04-.24m0 0a1 1 0 0 0-.76-.67 1.7 1.7 0 0 0-.55 0 .93.93 0 0 0-.64.47c-.101.18-.17.376-.2.58H15c.1 0 .13 0 .12-.14a1 1 0 0 0-.04-.24m0 0a1 1 0 0 0-.76-.67 1.7 1.7 0 0 0-.55 0 .93.93 0 0 0-.64.47c-.101.18-.17.376-.2.58H15c.1 0 .13 0 .12-.14a1 1 0 0 0-.04-.24m0 0a1 1 0 0 0-.76-.67 1.7 1.7 0 0 0-.55 0 .93.93 0 0 0-.64.47c-.101.18-.17.376-.2.58H15c.1 0 .13 0 .12-.14a1 1 0 0 0-.04-.24M15 0H5a5 5 0 0 0-5 5v10a5 5 0 0 0 5 5h10a5 5 0 0 0 5-5V5a5 5 0 0 0-5-5m-4.27 14H9.11a.14.14 0 0 1-.16-.12c-.08-.25-.17-.49-.25-.74s-.2-.57-.29-.86c0-.16-.13-.18-.27-.18H5.62c-.11 0-.11 0-.15.12s-.1.33-.16.5l-.16.52-.21.61a.2.2 0 0 1 0 .08c0 .13-.16.11-.26.11H3.39c-.15 0-.2-.07-.14-.21s.11-.3.16-.44l.21-.64.39-1.1c.11-.3.21-.61.31-.92s.19-.53.29-.8l.21-.63.37-1 .3-.88c.1-.28.2-.56.29-.85a2 2 0 0 0 0-.41c0-.21 0-.21.21-.21H7.8c.16 0 .15 0 .2.15s.18.49.26.73.15.42.22.62l.24.65.24.7c.1.27.2.53.29.8l.26.72c.08.24.17.48.26.73s.12.37.19.55.14.4.22.6.13.38.2.57l.29.81.12.35c.04-.01.01.07-.06.07m6-3q.007.135 0 .27c0 .09-.15.12-.24.12h-3.53c.036.328.18.634.41.87a3 3 0 0 0 2.8.18c.08 0 .12 0 .12.08v1.13c0 .18-.07.2-.22.26l-.36.11a2 2 0 0 1-.35.07c-.25 0-.5.07-.75.08s-.34 0-.51 0H14c-.2 0-.41 0-.6-.07a2.7 2.7 0 0 1-1.44-.8 2.6 2.6 0 0 1-.56-.88 2.8 2.8 0 0 1-.2-.75 9 9 0 0 1 0-.88c.015-.361.083-.718.2-1.06a3.2 3.2 0 0 1 .41-.8 2.5 2.5 0 0 1 .9-.82q.235-.135.49-.23a5 5 0 0 1 .56-.1q.255-.015.51 0 .375.006.74.1.33.093.63.26a2 2 0 0 1 .74.74c.1.18.18.36.26.54q.064.19.1.39a3 3 0 0 1 .03 1.19zm-2.45-1.85a1.7 1.7 0 0 0-.55 0 .93.93 0 0 0-.64.47q-.153.272-.2.58H15c.1 0 .13 0 .12-.14a1 1 0 0 0-.06-.26 1 1 0 0 0-.74-.7zm.76.67a1 1 0 0 0-.76-.67 1.7 1.7 0 0 0-.55 0 .93.93 0 0 0-.64.47q-.153.272-.2.58H15c.1 0 .13 0 .12-.14q0-.148-.04-.29zm0 0a1 1 0 0 0-.76-.67 1.7 1.7 0 0 0-.55 0 .93.93 0 0 0-.64.47q-.153.272-.2.58H15c.1 0 .13 0 .12-.14q0-.148-.04-.29zm0 0a1 1 0 0 0-.76-.67 1.7 1.7 0 0 0-.55 0 .93.93 0 0 0-.64.47q-.153.272-.2.58H15c.1 0 .13 0 .12-.14q0-.148-.04-.29zm0 0a1 1 0 0 0-.76-.67 1.7 1.7 0 0 0-.55 0 .93.93 0 0 0-.64.47q-.153.272-.2.58H15c.1 0 .13 0 .12-.14q0-.148-.04-.29z"/></symbol><symbol id="icon-CSS" viewBox="0 0 18 24"><path d="M4.502 0H7.08v1.078h-1.5v1.078h1.5v1.078H4.502zm3.093 0h2.579v.938h-1.5v.187h1.5v2.156H7.595v-.984h1.5v-.188h-1.5zm3.095 0h2.577v.938h-1.5v.187h1.5v2.156H10.69v-.984h1.5v-.188h-1.5z"/><path fill-rule="evenodd" d="m8.991 24-6.944-1.928L0 4.717h18L15.954 22.07zM4.047 12.573l.191 2.128h7.377l-.247 2.76-2.374.642h-.002l-2.37-.64-.152-1.697H4.333l.298 3.342 4.36 1.21 4.367-1.21.532-5.964.052-.571.384-4.309H3.664l.194 2.129h8.136l-.194 2.18z" clip-rule="evenodd"/></symbol><symbol id="icon-HTML" viewBox="0 0 18 24"><path d="M2.08 0h1.082v1.069h.99V0h1.082v3.236H4.152V2.153h-.99v1.083H2.081zm4.576 1.073h-.952V0h2.987v1.073h-.953v2.163H6.656zM9.165 0h1.128l.694 1.137L11.68 0h1.128v3.236h-1.077V1.632l-.744 1.151h-.019l-.745-1.15v1.603H9.165zm4.181 0h1.083v2.167h1.52v1.07h-2.603z"/><path fill-rule="evenodd" d="M2.046 22.072 0 4.717h18L15.953 22.07 8.99 24zm4.137-9.5-.194-2.18h8.145l.19-2.128H3.664l.574 6.437h7.377l-.247 2.76-2.374.642h-.002l-2.37-.64-.152-1.697H4.332l.298 3.342 4.36 1.21 4.367-1.21.532-5.964.052-.571z" clip-rule="evenodd"/></symbol><symbol id="icon-JS" viewBox="0 0 20 20"><path d="M.375.375v19.25h19.25V.375zm10.476 15.013c0 1.873-1.1 2.729-2.702 2.729-1.448 0-2.286-.748-2.716-1.655l1.474-.89c.284.503.542.929 1.165.929.592 0 .97-.232.97-1.139V9.215h1.81zm4.28 2.729c-1.681 0-2.768-.8-3.297-1.848l1.474-.85c.387.631.894 1.1 1.784 1.1.747 0 1.229-.375 1.229-.895 0-.618-.49-.838-1.32-1.203l-.45-.193c-1.307-.554-2.17-1.255-2.17-2.729 0-1.357 1.035-2.389 2.647-2.389 1.151 0 1.976.4 2.57 1.448l-1.41.903c-.31-.554-.645-.774-1.164-.774-.528 0-.864.336-.864.774 0 .542.336.76 1.113 1.1l.451.193c1.539.657 2.402 1.332 2.402 2.844 0 1.625-1.28 2.518-2.995 2.518"/></symbol><symbol id="icon-PHP" viewBox="0 0 24 14"><path d="M12 .5C5.271.5 0 3.355 0 7s5.271 6.5 12 6.5S24 10.645 24 7 18.729.5 12 .5m-1.246 2h1.31l-.416 2h1.17c.742 0 1.24.104 1.524.363.277.256.361.676.25 1.248l-.52 2.389H12.74l.479-2.209q.086-.457-.067-.625c-.101-.111-.324-.166-.658-.166h-1.049l-.633 3H9.5zM5 4.5h2.666c1.271 0 2.041.852 1.74 2.123C9.056 8.1 8.12 8.5 6.396 8.5h-.824L5.311 10H3.986zm10.5 0h2.666c1.271 0 2.041.852 1.74 2.123-.35 1.477-1.287 1.877-3.01 1.877h-.824l-.261 1.5h-1.325zm-9.365 1-.377 2h.855c.74 0 1.428-.084 1.543-1.187.043-.428-.135-.813-.99-.813zm10.5 0-.377 2h.855c.74 0 1.428-.084 1.543-1.187.043-.428-.134-.813-.99-.813z"/></symbol><symbol id="icon-arrow" viewBox="0 0 31 39"><path d="m12.313 28.074-6.58-6.577a3.188 3.188 0 1 0-4.509 4.508l12.021 12.02a3.185 3.185 0 0 0 4.51 0l12.02-12.018a3.19 3.19 0 0 0-4.508-4.51l-6.58 6.577V3.563a3.187 3.187 0 1 0-6.375 0z"/></symbol><symbol id="icon-blender" viewBox="0 0 68 56"><path d="M59.7 17.547 38.395 1.186c-1.395-1.072-3.74-1.067-5.272.006-1.551 1.083-1.73 2.88-.351 4.012l8.86 7.21H14.581c-2.233 0-4.38 1.496-4.803 3.348-.438 1.887 1.078 3.433 3.4 3.44h13.69L2.342 38.029c-2.305 1.764-3.05 4.7-1.597 6.556 1.472 1.89 4.606 1.894 6.935.01l13.335-10.912s-.196 1.472-.18 2.357c.4 7.464 6.092 14.384 13.138 17.449 12.142 5.377 28.535.454 33.144-13.56 2.192-7.353.512-16.095-7.418-22.381m-22.583 26.06c-9.59-5.02-9.59-17.636 0-22.655s21.642 1.288 21.642 11.327-12.052 16.347-21.642 11.328m2.92-4.517c-6.116-3.2-6.116-11.24 0-14.44 6.117-3.199 13.804.822 13.804 7.22s-7.687 10.419-13.803 7.22"/></symbol><symbol id="icon-c#" viewBox="0 0 49 53"><path fill-rule="evenodd" d="m24.5.882 23.647 13.722v23.788L24.5 52.118.853 38.392V14.604zm-4.25 12.951a12.2 12.2 0 0 0-4.64.916 12.1 12.1 0 0 0-3.933 2.614 12.05 12.05 0 0 0-2.627 3.912 12 12 0 0 0-.921 4.615v1.216c0 2.055.529 4.075 1.535 5.87a12.1 12.1 0 0 0 4.213 4.383 12.176 12.176 0 0 0 11.79.53l1.467-.723-1.63-3.239-1.462.724a8.51 8.51 0 0 1-8.253-.365 8.45 8.45 0 0 1-2.95-3.068 8.4 8.4 0 0 1-1.072-4.108v-1.216c0-1.438.37-2.852 1.074-4.108a8.46 8.46 0 0 1 2.949-3.069 8.52 8.52 0 0 1 8.252-.371l1.462.727 1.63-3.235-1.466-.727a12.04 12.04 0 0 0-5.417-1.278m9.707 3.619v3.618H26.32v3.619h3.638v3.618H26.32v3.619h3.638v3.619h3.638v-3.619h3.638v3.619h3.638v-3.619h3.638v-3.619h-3.638V24.69h3.638V21.07h-3.638v-3.618h-3.638v3.618h-3.638v-3.618z" clip-rule="evenodd"/></symbol><symbol id="icon-close" viewBox="0 0 80 80"><path fill-rule="evenodd" d="m40 50.61 26.515 26.515a7.503 7.503 0 0 0 10.61-10.61L50.6 40l26.52-26.515A7.501 7.501 0 0 0 66.51 2.88L40 29.395 13.485 2.88a7.5 7.5 0 1 0-10.61 10.6L29.4 40 2.88 66.52a7.5 7.5 0 1 0 10.61 10.6z" clip-rule="evenodd"/></symbol><symbol id="icon-csharp" viewBox="0 0 49 52"><path d="M34 27.882v-3h3v3z"/><path fill-rule="evenodd" d="m24.5.765 23.647 13.721v23.789L24.5 52 .853 38.275V14.486zm-4.25 12.95a12.2 12.2 0 0 0-4.64.916 12.1 12.1 0 0 0-3.933 2.614 12.05 12.05 0 0 0-2.627 3.912 12 12 0 0 0-.921 4.616v1.215c0 2.055.529 4.075 1.535 5.87a12.1 12.1 0 0 0 4.213 4.384 12.17 12.17 0 0 0 11.79.53l1.467-.724-1.63-3.239-1.462.724a8.51 8.51 0 0 1-8.253-.364 8.45 8.45 0 0 1-2.95-3.068 8.4 8.4 0 0 1-1.072-4.109v-1.216c0-1.438.37-2.852 1.074-4.108A8.46 8.46 0 0 1 15.79 18.6a8.52 8.52 0 0 1 8.252-.372l1.462.727 1.63-3.235-1.466-.727a12.04 12.04 0 0 0-5.417-1.277m9.707 3.62v3.618H26.32v3.618h3.638v3.619H26.32v3.618h3.638v3.619h3.638v-3.619h3.638v3.619h3.638v-3.619h3.638V28.19h-3.638V24.57h3.638v-3.618h-3.638v-3.619h-3.638v3.619h-3.638v-3.619z" clip-rule="evenodd"/></symbol><symbol id="icon-facebook" viewBox="0 0 65 64"><g clip-path="url(#clip0_6043_1254)"><path d="M64.165 32C64.165 14.52 49.978.333 32.498.333S.832 14.52.832 32c0 15.327 10.893 28.088 25.333 31.033V41.5H19.83V32h6.334v-7.917C26.165 17.972 31.137 13 37.248 13h7.917v9.5H38.83a3.176 3.176 0 0 0-3.166 3.167V32h9.5v9.5h-9.5v22.008c15.992-1.583 28.5-15.073 28.5-31.508"/></g><defs><clipPath id="clip0_6043_1254"><path d="M.832.333h63.333v63.175H.832z"/></clipPath></defs></symbol><symbol id="icon-github" viewBox="0 0 66 66"><g clip-path="url(#clip0_6043_1250)"><path d="M33.002.5C15.046.5.502 15.044.502 33a32.47 32.47 0 0 0 22.22 30.836c1.625.283 2.236-.692 2.236-1.547 0-.77-.042-3.328-.042-6.052-8.164 1.505-10.276-1.989-10.926-3.818-.368-.936-1.95-3.819-3.332-4.592-1.137-.608-2.762-2.113-.042-2.152 2.561-.042 4.388 2.356 4.999 3.331 2.925 4.914 7.595 3.533 9.463 2.682.287-2.113 1.138-3.533 2.074-4.346-7.231-.812-14.788-3.617-14.788-16.048 0-3.536 1.258-6.458 3.332-8.733-.325-.812-1.463-4.144.325-8.612 0 0 2.72-.855 8.937 3.327 2.646-.732 5.38-1.1 8.125-1.095 2.763 0 5.525.364 8.125 1.095 6.218-4.224 8.938-3.328 8.938-3.328 1.787 4.47.65 7.8.325 8.613 2.07 2.275 3.331 5.158 3.331 8.733 0 12.473-7.595 15.236-14.827 16.048 1.177 1.014 2.194 2.964 2.194 6.013 0 4.345-.042 7.839-.042 8.937 0 .852.611 1.866 2.236 1.54A32.57 32.57 0 0 0 65.499 33c0-17.956-14.544-32.5-32.5-32.5"/></g><defs><clipPath id="clip0_6043_1250"><path d="M.502.5h64.997v65H.502z"/></clipPath></defs></symbol><symbol id="icon-linkedin" viewBox="0 0 64 64"><path d="M56.5.5a7 7 0 0 1 7 7v49a7 7 0 0 1-7 7h-49a7 7 0 0 1-7-7v-49a7 7 0 0 1 7-7zm-1.75 54.25V36.2a11.41 11.41 0 0 0-11.41-11.41c-2.975 0-6.44 1.82-8.12 4.55v-3.885h-9.765V54.75h9.765V37.495c0-2.695 2.17-4.9 4.865-4.9a4.9 4.9 0 0 1 4.9 4.9V54.75zM14.08 19.96a5.88 5.88 0 0 0 5.88-5.88c0-3.255-2.625-5.915-5.88-5.915a5.915 5.915 0 0 0-5.915 5.915c0 3.255 2.66 5.88 5.915 5.88m4.865 34.79V25.455H9.25V54.75z"/></symbol><symbol id="icon-play" viewBox="0 0 76 84"><path d="m6.444 1.045 66.71 37.529a3.934 3.934 0 0 1 0 6.853l-66.71 37.53a3.933 3.933 0 0 1-5.86-3.433V4.476a3.933 3.933 0 0 1 3.9-3.93 3.93 3.93 0 0 1 1.96.499"/></symbol><symbol id="icon-unity" viewBox="0 0 50 52"><path d="M21.645 40.167H14.25L.338 26 14.25 11.833h7.395l3.712-6.403L44.595.5l5.298 19.097L46.182 26l3.711 6.403L44.595 51.5l-19.238-4.93zm.397-.709 14.535 3.91-8.387-14.535H11.417zm19.465 1.077L45.417 26l-3.91-14.535L33.092 26zM22.042 12.542 11.417 23.167H28.19l8.387-14.535z"/></symbol><symbol id="icon-zoom" viewBox="0 0 37 37"><path fill-rule="evenodd" d="M16.29 0a16.292 16.292 0 1 0 10.086 29.087l7 7a1.917 1.917 0 0 0 2.71-2.71l-7-7A16.292 16.292 0 0 0 16.29 0M7.665 16.292a1.917 1.917 0 0 1 1.917-1.917h4.792V9.583a1.916 1.916 0 1 1 3.833 0v4.792h4.792a1.916 1.916 0 1 1 0 3.833h-4.792V23a1.917 1.917 0 0 1-3.833 0v-4.792H9.582a1.917 1.917 0 0 1-1.917-1.916" clip-rule="evenodd"/></symbol></svg>