<svg width="20" height="20" viewBox="0 0 20 20" fill="none" xmlns="http://www.w3.org/2000/svg">
<path d="M7.84 10.4C7.84 10.49 7.84 10.49 7.77 10.49H6C6.33 9.49 6.68 8.43 7 7.39C7 7.47 7 7.55 7.07 7.63C7.14 7.71 7.16 7.96 7.2 8.12L7.38 8.68C7.38 8.87 7.49 9.05 7.55 9.24L7.74 9.81L7.84 10.4Z" fill="black"/>
<path d="M15.08 9.77C15.0245 9.60076 14.9247 9.44942 14.7911 9.33163C14.6575 9.21384 14.4949 9.13387 14.32 9.1C14.1379 9.07015 13.9521 9.07015 13.77 9.1C13.6352 9.12625 13.508 9.182 13.3973 9.26326C13.2867 9.34452 13.1954 9.44928 13.13 9.57C13.0287 9.7496 12.9609 9.94614 12.93 10.15H15C15.1 10.15 15.13 10.15 15.12 10.01C15.1165 9.92867 15.1031 9.84807 15.08 9.77ZM15.08 9.77C15.0245 9.60076 14.9247 9.44942 14.7911 9.33163C14.6575 9.21384 14.4949 9.13387 14.32 9.1C14.1379 9.07015 13.9521 9.07015 13.77 9.1C13.6352 9.12625 13.508 9.182 13.3973 9.26326C13.2867 9.34452 13.1954 9.44928 13.13 9.57C13.0287 9.7496 12.9609 9.94614 12.93 10.15H15C15.1 10.15 15.13 10.15 15.12 10.01C15.1165 9.92867 15.1031 9.84807 15.08 9.77ZM15.08 9.77C15.0245 9.60076 14.9247 9.44942 14.7911 9.33163C14.6575 9.21384 14.4949 9.13387 14.32 9.1C14.1379 9.07015 13.9521 9.07015 13.77 9.1C13.6352 9.12625 13.508 9.182 13.3973 9.26326C13.2867 9.34452 13.1954 9.44928 13.13 9.57C13.0287 9.7496 12.9609 9.94614 12.93 10.15H15C15.1 10.15 15.13 10.15 15.12 10.01C15.1165 9.92867 15.1031 9.84807 15.08 9.77ZM15.08 9.77C15.0245 9.60076 14.9247 9.44942 14.7911 9.33163C14.6575 9.21384 14.4949 9.13387 14.32 9.1C14.1379 9.07015 13.9521 9.07015 13.77 9.1C13.6352 9.12625 13.508 9.182 13.3973 9.26326C13.2867 9.34452 13.1954 9.44928 13.13 9.57C13.0287 9.7496 12.9609 9.94614 12.93 10.15H15C15.1 10.15 15.13 10.15 15.12 10.01C15.1165 9.92867 15.1031 9.84807 15.08 9.77ZM15 0H5C3.67392 0 2.40215 0.526784 1.46447 1.46447C0.526784 2.40215 0 3.67392 0 5V15C0 16.3261 0.526784 17.5979 1.46447 18.5355C2.40215 19.4732 3.67392 20 5 20H15C16.3261 20 17.5979 19.4732 18.5355 18.5355C19.4732 17.5979 20 16.3261 20 15V5C20 3.67392 19.4732 2.40215 18.5355 1.46447C17.5979 0.526784 16.3261 0 15 0ZM10.73 14H9.11C9.08224 14.0042 9.05386 14 9.02854 13.9879C9.00321 13.9757 8.98212 13.9563 8.968 13.932C8.95862 13.916 8.9525 13.8984 8.95 13.88C8.87 13.63 8.78 13.39 8.7 13.14C8.62 12.89 8.5 12.57 8.41 12.28C8.41 12.12 8.28 12.1 8.14 12.1H5.62C5.51 12.1 5.51 12.1 5.47 12.22C5.43 12.34 5.37 12.55 5.31 12.72L5.15 13.24L4.94 13.85C4.94539 13.8764 4.94539 13.9036 4.94 13.93C4.94 14.06 4.78 14.04 4.68 14.04H3.39C3.24 14.04 3.19 13.97 3.25 13.83C3.31 13.69 3.36 13.53 3.41 13.39L3.62 12.75L4.01 11.65C4.12 11.35 4.22 11.04 4.32 10.73C4.42 10.42 4.51 10.2 4.61 9.93L4.82 9.3L5.19 8.3L5.49 7.42C5.59 7.14 5.69 6.86 5.78 6.57C5.79405 6.43369 5.79405 6.29631 5.78 6.16C5.78 5.95 5.78 5.95 5.99 5.95H7.8C7.96 5.95 7.95 5.95 8 6.1C8.05 6.25 8.18 6.59 8.26 6.83C8.34 7.07 8.41 7.25 8.48 7.45L8.72 8.1L8.96 8.8C9.06 9.07 9.16 9.33 9.25 9.6L9.51 10.32C9.59 10.56 9.68 10.8 9.77 11.05C9.86 11.3 9.89 11.42 9.96 11.6C10.03 11.78 10.1 12 10.18 12.2C10.26 12.4 10.31 12.58 10.38 12.77L10.67 13.58L10.79 13.93C10.83 13.92 10.8 14 10.73 14ZM16.73 11C16.7347 11.09 16.7347 11.18 16.73 11.27C16.73 11.36 16.58 11.39 16.49 11.39H12.96C12.996 11.718 13.14 12.024 13.37 12.26C13.7867 12.5159 14.2596 12.6661 14.7477 12.6975C15.2357 12.7289 15.724 12.6405 16.17 12.44C16.25 12.44 16.29 12.44 16.29 12.52V13.65C16.29 13.83 16.22 13.85 16.07 13.91L15.71 14.02C15.5957 14.0537 15.4785 14.0771 15.36 14.09C15.11 14.09 14.86 14.16 14.61 14.17C14.36 14.18 14.27 14.17 14.1 14.17H14C13.8 14.17 13.59 14.17 13.4 14.1C12.8484 13.9898 12.3449 13.7102 11.96 13.3C11.7158 13.0475 11.5253 12.7481 11.4 12.42C11.2988 12.1805 11.2315 11.9281 11.2 11.67C11.1857 11.3768 11.1857 11.0832 11.2 10.79C11.215 10.429 11.283 10.072 11.4 9.73C11.4983 9.44537 11.6364 9.17605 11.81 8.93C12.0378 8.58668 12.347 8.30499 12.71 8.11C12.8667 8.01933 13.03 7.94267 13.2 7.88C13.3846 7.83607 13.5716 7.80268 13.76 7.78C13.93 7.77 14.1 7.77 14.27 7.78C14.5207 7.784 14.7673 7.81733 15.01 7.88C15.23 7.942 15.44 8.02867 15.64 8.14C15.948 8.31662 16.2034 8.57203 16.38 8.88C16.48 9.06 16.56 9.24 16.64 9.42C16.6827 9.54733 16.716 9.67733 16.74 9.81C16.8294 10.2007 16.8396 10.6053 16.77 11H16.73ZM14.28 9.15C14.0979 9.12015 13.9121 9.12015 13.73 9.15C13.5952 9.17625 13.468 9.232 13.3573 9.31326C13.2467 9.39452 13.1554 9.49928 13.09 9.62C12.9887 9.7996 12.9209 9.99614 12.89 10.2H15C15.1 10.2 15.13 10.2 15.12 10.06C15.1117 9.97104 15.0915 9.8836 15.06 9.8C15.0107 9.62772 14.916 9.47186 14.7858 9.34872C14.6556 9.22557 14.4947 9.13967 14.32 9.1L14.28 9.15ZM15.04 9.82C14.9845 9.65076 14.8847 9.49942 14.7511 9.38163C14.6175 9.26384 14.4549 9.18387 14.28 9.15C14.0979 9.12015 13.9121 9.12015 13.73 9.15C13.5952 9.17625 13.468 9.232 13.3573 9.31326C13.2467 9.39452 13.1554 9.49928 13.09 9.62C12.9887 9.7996 12.9209 9.99614 12.89 10.2H15C15.1 10.2 15.13 10.2 15.12 10.06C15.12 9.96133 15.1067 9.86467 15.08 9.77L15.04 9.82ZM15.04 9.82C14.9845 9.65076 14.8847 9.49942 14.7511 9.38163C14.6175 9.26384 14.4549 9.18387 14.28 9.15C14.0979 9.12015 13.9121 9.12015 13.73 9.15C13.5952 9.17625 13.468 9.232 13.3573 9.31326C13.2467 9.39452 13.1554 9.49928 13.09 9.62C12.9887 9.7996 12.9209 9.99614 12.89 10.2H15C15.1 10.2 15.13 10.2 15.12 10.06C15.12 9.96133 15.1067 9.86467 15.08 9.77L15.04 9.82ZM15.04 9.82C14.9845 9.65076 14.8847 9.49942 14.7511 9.38163C14.6175 9.26384 14.4549 9.18387 14.28 9.15C14.0979 9.12015 13.9121 9.12015 13.73 9.15C13.5952 9.17625 13.468 9.232 13.3573 9.31326C13.2467 9.39452 13.1554 9.49928 13.09 9.62C12.9887 9.7996 12.9209 9.99614 12.89 10.2H15C15.1 10.2 15.13 10.2 15.12 10.06C15.12 9.96133 15.1067 9.86467 15.08 9.77L15.04 9.82ZM15.04 9.82C14.9845 9.65076 14.8847 9.49942 14.7511 9.38163C14.6175 9.26384 14.4549 9.18387 14.28 9.15C14.0979 9.12015 13.9121 9.12015 13.73 9.15C13.5952 9.17625 13.468 9.232 13.3573 9.31326C13.2467 9.39452 13.1554 9.49928 13.09 9.62C12.9887 9.7996 12.9209 9.99614 12.89 10.2H15C15.1 10.2 15.13 10.2 15.12 10.06C15.12 9.96133 15.1067 9.86467 15.08 9.77L15.04 9.82Z" fill="black"/>
</svg>
