<svg width="49" height="53" viewBox="0 0 49 53" fill="none" xmlns="http://www.w3.org/2000/svg">
<path fill-rule="evenodd" clip-rule="evenodd" d="M24.5001 0.882324L48.1471 14.6039V38.3924L24.5001 52.1176L0.853027 38.3924V14.6039L24.5001 0.882324ZM20.2509 13.8332C18.6588 13.8322 17.0821 14.1434 15.6109 14.749C14.1398 15.3546 12.8031 16.2427 11.6773 17.3625C10.5515 18.4823 9.65866 19.8118 9.04982 21.2751C8.44098 22.7383 8.12809 24.3066 8.12905 25.8902V27.1061C8.12953 29.1607 8.65787 31.181 9.6639 32.9755C10.6699 34.7699 12.1203 36.2789 13.8774 37.3591C15.6344 38.4394 17.6398 39.0552 19.7034 39.148C21.7669 39.2408 23.82 38.8076 25.6679 37.8894L27.134 37.1657L25.5042 33.9271L24.0417 34.6508C22.7491 35.2952 21.3122 35.6 19.8678 35.5362C18.4233 35.4725 17.0193 35.0422 15.7892 34.2865C14.559 33.5307 13.5437 32.4746 12.8397 31.2184C12.1357 29.9622 11.7664 28.5478 11.7671 27.1097V25.8939C11.7672 24.4559 12.1368 23.0417 12.8408 21.7857C13.5448 20.5297 14.5598 19.4735 15.7895 18.7173C17.0192 17.9611 18.4228 17.53 19.867 17.4649C21.3113 17.3999 22.7483 17.703 24.0417 18.3455L25.5042 19.0729L27.134 15.8379L25.6679 15.1105C23.9867 14.2679 22.1335 13.8303 20.2509 13.8332ZM29.9571 17.4517V21.0703H26.3191V24.6889H29.9571V28.3074H26.3191V31.926H29.9571V35.5446H33.5951V31.926H37.2331V35.5446H40.8711V31.926H44.5091V28.3074H40.8711V24.6889H44.5091V21.0703H40.8711V17.4517H37.2331V21.0703H33.5951V17.4517H29.9571Z" fill="white"/>
</svg>
