<svg width="80" height="80" viewBox="0 0 80 80" fill="none" xmlns="http://www.w3.org/2000/svg">
<path fill-rule="evenodd" clip-rule="evenodd" d="M40 50.6101L66.515 77.1251C67.9219 78.532 69.8302 79.3225 71.82 79.3225C73.8097 79.3225 75.718 78.532 77.125 77.1251C78.5319 75.7181 79.3224 73.8098 79.3224 71.8201C79.3224 69.8303 78.5319 67.922 77.125 66.5151L50.6 40.0001L77.12 13.4851C77.8163 12.7884 78.3686 11.9614 78.7453 11.0513C79.1221 10.1412 79.3158 9.16579 79.3156 8.1808C79.3154 7.1958 79.1211 6.22049 78.744 5.31056C78.3668 4.40063 77.8141 3.5739 77.1175 2.87756C76.4208 2.18123 75.5938 1.62893 74.6837 1.2522C73.7736 0.875476 72.7982 0.681695 71.8132 0.681927C70.8282 0.68216 69.8529 0.876398 68.943 1.25356C68.033 1.63071 67.2063 2.1834 66.51 2.88006L40 29.3951L13.485 2.88006C12.7935 2.16342 11.9661 1.59167 11.0513 1.19818C10.1365 0.804682 9.15241 0.597325 8.15657 0.588205C7.16074 0.579085 6.17305 0.768384 5.25116 1.14506C4.32926 1.52173 3.49161 2.07823 2.78709 2.78209C2.08257 3.48595 1.52527 4.32307 1.14773 5.24462C0.770192 6.16616 0.579963 7.15366 0.588144 8.1495C0.596325 9.14535 0.802751 10.1296 1.19538 11.0448C1.58801 11.96 2.15898 12.7879 2.87497 13.4801L29.4 40.0001L2.87998 66.5201C2.16398 67.2123 1.59301 68.0401 1.20038 68.9553C0.807754 69.8705 0.601324 70.8548 0.593143 71.8506C0.584962 72.8465 0.775192 73.834 1.15273 74.7555C1.53027 75.677 2.08757 76.5142 2.79209 77.218C3.49661 77.9219 4.33426 78.4784 5.25616 78.8551C6.17805 79.2317 7.16574 79.421 8.16157 79.4119C9.15741 79.4028 10.1415 79.1954 11.0563 78.8019C11.9711 78.4085 12.7985 77.8367 13.49 77.1201L40 50.6101Z" fill="#B0D951"/>
</svg>
