<svg width="64" height="64" viewBox="0 0 64 64" fill="none" xmlns="http://www.w3.org/2000/svg">
<path d="M63 32C63 49.489 49.4891 63.6666 32 63.6666C14.511 63.6666 1.5 49.489 1.5 32C1.5 14.511 14.511 1 32 1C49.4891 1 63 14.511 63 32Z" fill="white"/>
<path d="M63.6667 32C63.6667 14.52 49.48 0.333313 32 0.333313C14.52 0.333313 0.333374 14.52 0.333374 32C0.333374 47.3266 11.2267 60.0883 25.6667 63.0333V41.5H19.3334V32H25.6667V24.0833C25.6667 17.9716 30.6384 13 36.75 13H44.6667V22.5H38.3334C36.5917 22.5 35.1667 23.925 35.1667 25.6666V32H44.6667V41.5H35.1667V63.5083C51.1584 61.925 63.6667 48.435 63.6667 32Z" fill="#3A54FF"/>
</svg>
