<svg width="65" height="64" viewBox="0 0 65 64" fill="none" xmlns="http://www.w3.org/2000/svg">
<path d="M62.998 32C62.998 49.489 49.987 63.6666 32.498 63.6666C15.0089 63.6666 2.99805 49.489 2.99805 32C2.99805 14.511 15.0089 2.5 32.498 2.5C49.987 2.5 62.998 14.511 62.998 32Z" fill="white"/>
<path d="M64.1649 32C64.1649 14.52 49.9782 0.333313 32.4982 0.333313C15.0182 0.333313 0.831543 14.52 0.831543 32C0.831543 47.3266 11.7249 60.0883 26.1649 63.0333V41.5H19.8315V32H26.1649V24.0833C26.1649 17.9716 31.1365 13 37.2482 13H45.1649V22.5H38.8315C37.0899 22.5 35.6649 23.925 35.6649 25.6666V32H45.1649V41.5H35.6649V63.5083C51.6565 61.925 64.1649 48.435 64.1649 32Z" fill="#3A54FF"/>
</svg>
