<svg width="66" height="66" viewBox="0 0 66 66" fill="none" xmlns="http://www.w3.org/2000/svg">
<g clip-path="url(#clip0_6043_1250)">
<path d="M33.002 0.5C15.0457 0.5 0.501965 15.0437 0.501965 33C0.496081 39.8227 2.63967 46.4739 6.62839 52.0092C10.6171 57.5445 16.2482 61.6826 22.7222 63.836C24.3472 64.1188 24.9582 63.1437 24.9582 62.289C24.9582 61.5187 24.916 58.961 24.916 56.2375C16.752 57.7422 14.6395 54.2485 13.9895 52.4188C13.6222 51.4827 12.0395 48.6 10.6582 47.8265C9.52071 47.2188 7.89571 45.714 10.616 45.675C13.177 45.6327 15.0035 48.0312 15.6145 49.0062C18.5395 53.9202 23.2097 52.539 25.0785 51.6875C25.3645 49.575 26.216 48.1548 27.152 47.3423C19.9207 46.5298 12.3645 43.725 12.3645 31.2938C12.3645 27.7578 13.6222 24.836 15.6957 22.561C15.3707 21.7485 14.2332 18.4172 16.0207 13.9485C16.0207 13.9485 18.741 13.0938 24.9582 17.2765C27.6042 16.5441 30.3377 16.1756 33.0832 16.1812C35.8457 16.1812 38.6082 16.5452 41.2082 17.2765C47.4255 13.0515 50.1457 13.9485 50.1457 13.9485C51.9332 18.4172 50.7957 21.7485 50.4707 22.561C52.541 24.836 53.802 27.7188 53.802 31.2938C53.802 43.7673 46.2067 46.5298 38.9755 47.3423C40.152 48.3563 41.1692 50.3063 41.1692 53.3548C41.1692 57.7 41.127 61.1938 41.127 62.2923C41.127 63.1438 41.738 64.1577 43.363 63.8327C49.8126 61.6523 55.4167 57.5053 59.3873 51.9748C63.3578 46.4442 65.4951 39.8083 65.4987 33C65.4987 15.0437 50.955 0.5 32.9987 0.5" fill="black"/>
</g>
<defs>
<clipPath id="clip0_6043_1250">
<rect width="64.9968" height="65" fill="white" transform="translate(0.501953 0.5)"/>
</clipPath>
</defs>
</svg>
