<svg width="66" height="66" viewBox="0 0 66 66" fill="none" xmlns="http://www.w3.org/2000/svg">
<path d="M62 33.7519C62 51.8403 48.6328 66 33.4219 66C16.3672 66 3 51.3365 3 33.2481C3 15.1597 16.8749 1 33.4219 1C49.9688 1 62 15.6635 62 33.7519Z" fill="white"/>
<path d="M33.0033 0.5C15.0471 0.5 0.503308 15.0437 0.503308 33C0.497423 39.8227 2.64102 46.4739 6.62973 52.0092C10.6184 57.5445 16.2496 61.6826 22.7236 63.836C24.3486 64.1188 24.9596 63.1437 24.9596 62.289C24.9596 61.5187 24.9173 58.961 24.9173 56.2375C16.7533 57.7422 14.6408 54.2485 13.9908 52.4188C13.6236 51.4828 12.0408 48.6 10.6596 47.8265C9.52206 47.2187 7.89706 45.714 10.6173 45.675C13.1783 45.6327 15.0048 48.0312 15.6158 49.0062C18.5408 53.9202 23.2111 52.539 25.0798 51.6875C25.3658 49.575 26.2173 48.1548 27.1533 47.3423C19.9221 46.5298 12.3658 43.725 12.3658 31.2938C12.3658 27.7578 13.6236 24.836 15.6971 22.561C15.3721 21.7485 14.2346 18.4172 16.0221 13.9485C16.0221 13.9485 18.7423 13.0938 24.9596 17.2765C27.6056 16.5441 30.339 16.1756 33.0846 16.1812C35.8471 16.1812 38.6096 16.5453 41.2096 17.2765C47.4268 13.0515 50.147 13.9485 50.147 13.9485C51.9345 18.4172 50.797 21.7485 50.472 22.561C52.5423 24.836 53.8033 27.7188 53.8033 31.2938C53.8033 43.7673 46.2081 46.5298 38.9768 47.3423C40.1533 48.3563 41.1706 50.3063 41.1706 53.3548C41.1706 57.7 41.1283 61.1938 41.1283 62.2923C41.1283 63.1438 41.7393 64.1577 43.3643 63.8327C49.814 61.6523 55.4181 57.5053 59.3886 51.9748C63.3592 46.4442 65.4965 39.8083 65.5001 33C65.5001 15.0437 50.9563 0.5 33.0001 0.5" fill="#363636"/>
</svg>
