<svg width="66" height="66" viewBox="0 0 66 66" fill="none" xmlns="http://www.w3.org/2000/svg">
<path d="M63.998 33.5C63.998 51.4493 49.998 65.5 33.498 65.5C14.998 65.5 1.99805 51.4493 1.99805 33.5C1.99805 15.5507 15.5488 1 33.498 1C51.4473 1 63.998 15.5507 63.998 33.5Z" fill="white"/>
<path d="M33.0015 0.5C15.0452 0.5 0.501477 15.0437 0.501477 33C0.495592 39.8227 2.63918 46.4739 6.6279 52.0092C10.6166 57.5445 16.2477 61.6826 22.7217 63.836C24.3467 64.1188 24.9577 63.1437 24.9577 62.289C24.9577 61.5187 24.9155 58.961 24.9155 56.2375C16.7515 57.7422 14.639 54.2485 13.989 52.4188C13.6217 51.4828 12.039 48.6 10.6577 47.8265C9.52023 47.2187 7.89523 45.714 10.6155 45.675C13.1765 45.6327 15.003 48.0312 15.614 49.0062C18.539 53.9202 23.2092 52.539 25.078 51.6875C25.364 49.575 26.2155 48.1548 27.1515 47.3423C19.9202 46.5298 12.364 43.725 12.364 31.2938C12.364 27.7578 13.6217 24.836 15.6952 22.561C15.3702 21.7485 14.2327 18.4172 16.0202 13.9485C16.0202 13.9485 18.7405 13.0938 24.9577 17.2765C27.6037 16.5441 30.3372 16.1756 33.0827 16.1812C35.8452 16.1812 38.6077 16.5453 41.2077 17.2765C47.425 13.0515 50.1452 13.9485 50.1452 13.9485C51.9327 18.4172 50.7952 21.7485 50.4702 22.561C52.5405 24.836 53.8015 27.7188 53.8015 31.2938C53.8015 43.7673 46.2062 46.5298 38.975 47.3423C40.1515 48.3563 41.1687 50.3063 41.1687 53.3548C41.1687 57.7 41.1265 61.1938 41.1265 62.2923C41.1265 63.1438 41.7375 64.1577 43.3625 63.8327C49.8121 61.6523 55.4162 57.5053 59.3868 51.9748C63.3573 46.4442 65.4947 39.8083 65.4982 33C65.4982 15.0437 50.9545 0.5 32.9982 0.5" fill="black"/>
</svg>
