<svg width="94" height="77" viewBox="0 0 94 77" fill="none" xmlns="http://www.w3.org/2000/svg">
<rect width="94" height="77" fill="black"/>
<path d="M32.94 52.06H17.22L14.7 59.5H3.96L19.2 17.38H31.08L46.32 59.5H35.46L32.94 52.06ZM30.3 44.14L25.08 28.72L19.92 44.14H30.3ZM66.7383 17.38C71.1783 17.38 75.0583 18.26 78.3783 20.02C81.6983 21.78 84.2583 24.26 86.0583 27.46C87.8983 30.62 88.8183 34.28 88.8183 38.44C88.8183 42.56 87.8983 46.22 86.0583 49.42C84.2583 52.62 81.6783 55.1 78.3183 56.86C74.9983 58.62 71.1383 59.5 66.7383 59.5H50.9583V17.38H66.7383ZM66.0783 50.62C69.9583 50.62 72.9783 49.56 75.1383 47.44C77.2983 45.32 78.3783 42.32 78.3783 38.44C78.3783 34.56 77.2983 31.54 75.1383 29.38C72.9783 27.22 69.9583 26.14 66.0783 26.14H61.2183V50.62H66.0783Z" fill="#CCE320"/>
</svg>
