<svg width="20" height="20" viewBox="0 0 20 20" fill="none" xmlns="http://www.w3.org/2000/svg">
<path d="M0.375 0.375V19.625H19.625V0.375H0.375ZM10.8511 15.3879C10.8511 17.2614 9.75113 18.1166 8.14856 18.1166C6.70069 18.1166 5.86263 17.3693 5.43294 16.4625L6.90694 15.5729C7.19088 16.0754 7.44869 16.501 8.07156 16.501C8.66419 16.501 9.04231 16.2686 9.04231 15.3625V9.2135H10.8511V15.3879ZM15.1301 18.1166C13.4499 18.1166 12.3629 17.3178 11.8342 16.2686L13.3083 15.4182C13.6953 16.05 14.202 16.5182 15.0916 16.5182C15.8389 16.5182 16.3209 16.1442 16.3209 15.6244C16.3209 15.0057 15.8307 14.7864 15.0016 14.4213L14.5506 14.2281C13.2443 13.674 12.3808 12.9734 12.3808 11.4994C12.3808 10.1416 13.4162 9.11038 15.0277 9.11038C16.1792 9.11038 17.0043 9.50981 17.5976 10.5583L16.1882 11.4609C15.8788 10.9068 15.5433 10.6875 15.0236 10.6875C14.4956 10.6875 14.1601 11.023 14.1601 11.4609C14.1601 12.0027 14.4956 12.2213 15.2731 12.5609L15.7241 12.7541C17.2628 13.4114 18.1262 14.0865 18.1262 15.5983C18.1262 17.2229 16.8454 18.1159 15.1308 18.1159L15.1301 18.1166Z" fill="black"/>
</svg>
