<svg width="64" height="64" viewBox="0 0 64 64" fill="none" xmlns="http://www.w3.org/2000/svg">
<rect x="2.69763" y="5.62793" width="58.6047" height="53.7209" fill="white"/>
<path d="M56.5 0.5C58.3565 0.5 60.137 1.2375 61.4497 2.55025C62.7625 3.86301 63.5 5.64348 63.5 7.5V56.5C63.5 58.3565 62.7625 60.137 61.4497 61.4497C60.137 62.7625 58.3565 63.5 56.5 63.5H7.5C5.64348 63.5 3.86301 62.7625 2.55025 61.4497C1.2375 60.137 0.5 58.3565 0.5 56.5V7.5C0.5 5.64348 1.2375 3.86301 2.55025 2.55025C3.86301 1.2375 5.64348 0.5 7.5 0.5H56.5ZM54.75 54.75V36.2C54.75 33.1739 53.5479 30.2717 51.4081 28.1319C49.2683 25.9921 46.3661 24.79 43.34 24.79C40.365 24.79 36.9 26.61 35.22 29.34V25.455H25.455V54.75H35.22V37.495C35.22 34.8 37.39 32.595 40.085 32.595C41.3846 32.595 42.6309 33.1112 43.5498 34.0302C44.4688 34.9491 44.985 36.1954 44.985 37.495V54.75H54.75ZM14.08 19.96C15.6395 19.96 17.1351 19.3405 18.2378 18.2378C19.3405 17.1351 19.96 15.6395 19.96 14.08C19.96 10.825 17.335 8.165 14.08 8.165C12.5112 8.165 11.0067 8.78819 9.89746 9.89746C8.78819 11.0067 8.165 12.5112 8.165 14.08C8.165 17.335 10.825 19.96 14.08 19.96ZM18.945 54.75V25.455H9.25V54.75H18.945Z" fill="#3A54FF"/>
</svg>
