<svg width="85" height="84" viewBox="0 0 85 84" fill="none" xmlns="http://www.w3.org/2000/svg">
<path d="M66.9985 10.5C68.855 10.5 70.6355 11.2375 71.9483 12.5503C73.261 13.863 73.9985 15.6435 73.9985 17.5V66.5C73.9985 68.3565 73.261 70.137 71.9483 71.4497C70.6355 72.7625 68.855 73.5 66.9985 73.5H17.9985C16.142 73.5 14.3615 72.7625 13.0488 71.4497C11.736 70.137 10.9985 68.3565 10.9985 66.5V17.5C10.9985 15.6435 11.736 13.863 13.0488 12.5503C14.3615 11.2375 16.142 10.5 17.9985 10.5H66.9985ZM65.2485 64.75V46.2C65.2485 43.1739 64.0464 40.2717 61.9066 38.1319C59.7668 35.9921 56.8647 34.79 53.8385 34.79C50.8635 34.79 47.3985 36.61 45.7185 39.34V35.455H35.9535V64.75H45.7185V47.495C45.7185 44.8 47.8885 42.595 50.5835 42.595C51.8831 42.595 53.1294 43.1112 54.0484 44.0302C54.9673 44.9491 55.4835 46.1954 55.4835 47.495V64.75H65.2485ZM24.5785 29.96C26.138 29.96 27.6336 29.3405 28.7363 28.2378C29.839 27.1351 30.4585 25.6395 30.4585 24.08C30.4585 20.825 27.8335 18.165 24.5785 18.165C23.0098 18.165 21.5053 18.7882 20.396 19.8975C19.2867 21.0067 18.6635 22.5112 18.6635 24.08C18.6635 27.335 21.3235 29.96 24.5785 29.96ZM29.4435 64.75V35.455H19.7485V64.75H29.4435Z" fill="#3A54FF"/>
</svg>
