<svg width="24" height="14" viewBox="0 0 24 14" fill="none" xmlns="http://www.w3.org/2000/svg">
<path d="M12 0.5C5.271 0.5 0 3.355 0 7C0 10.645 5.271 13.5 12 13.5C18.729 13.5 24 10.645 24 7C24 3.355 18.729 0.5 12 0.5ZM10.754 2.5H12.064L11.648 4.5H12.818C13.56 4.5 14.058 4.604 14.342 4.863C14.619 5.119 14.703 5.539 14.592 6.111L14.072 8.5H12.74L13.219 6.291C13.2763 5.98633 13.254 5.778 13.152 5.666C13.051 5.555 12.828 5.5 12.494 5.5H11.445L10.812 8.5H9.5L10.754 2.5ZM5 4.5H7.666C8.937 4.5 9.707 5.352 9.406 6.623C9.056 8.1 8.12 8.5 6.396 8.5H5.572L5.311 10H3.986L5 4.5ZM15.5 4.5H18.166C19.437 4.5 20.207 5.352 19.906 6.623C19.556 8.1 18.619 8.5 16.896 8.5H16.072L15.811 10H14.486L15.5 4.5ZM6.135 5.5L5.758 7.5H6.613C7.353 7.5 8.041 7.416 8.156 6.313C8.199 5.885 8.021 5.5 7.166 5.5H6.135ZM16.635 5.5L16.258 7.5H17.113C17.853 7.5 18.541 7.416 18.656 6.313C18.699 5.885 18.522 5.5 17.666 5.5H16.635Z" fill="black"/>
</svg>
