<svg width="76" height="84" viewBox="0 0 76 84" fill="none" xmlns="http://www.w3.org/2000/svg">
<path d="M6.44392 1.04456L73.1533 38.5735C73.7609 38.9158 74.2666 39.4136 74.6186 40.0158C74.9705 40.618 75.1559 41.3029 75.1559 42.0004C75.1559 42.6979 74.9705 43.3828 74.6186 43.985C74.2666 44.5872 73.7609 45.085 73.1533 45.4273L6.44392 82.9562C5.84516 83.2928 5.16871 83.4667 4.48187 83.4606C3.79503 83.4546 3.12175 83.2688 2.52903 82.9217C1.93631 82.5746 1.44481 82.0784 1.10343 81.4823C0.76206 80.8863 0.582719 80.2113 0.583253 79.5244V4.4764C0.583577 3.78995 0.763544 3.11554 1.10527 2.52019C1.44699 1.92484 1.93857 1.42929 2.53115 1.08279C3.12373 0.736293 3.79667 0.550909 4.4831 0.545064C5.16952 0.53922 5.84553 0.708204 6.44392 1.04456Z" fill="#B0D951"/>
</svg>
