<svg width="37" height="37" viewBox="0 0 37 37" fill="none" xmlns="http://www.w3.org/2000/svg">
<path fill-rule="evenodd" clip-rule="evenodd" d="M16.2903 3.674e-08C13.6924 0.000221359 11.1323 0.621698 8.82344 1.81258C6.51461 3.00346 4.52404 4.72922 3.01782 6.84586C1.51159 8.96251 0.533383 11.4087 0.164805 13.9803C-0.203773 16.5518 0.0479671 19.1743 0.899023 21.6288C1.75008 24.0833 3.17577 26.2987 5.05715 28.0901C6.93853 29.8816 9.22105 31.1972 11.7143 31.9271C14.2075 32.657 16.8391 32.7801 19.3896 32.2861C21.94 31.7921 24.3354 30.6953 26.3758 29.0873L33.3755 36.087C33.7369 36.4361 34.2211 36.6293 34.7236 36.625C35.2262 36.6206 35.7069 36.419 36.0623 36.0637C36.4176 35.7083 36.6192 35.2276 36.6236 34.725C36.6279 34.2225 36.4347 33.7383 36.0856 33.3768L29.086 26.3772C30.9796 23.9749 32.1587 21.0879 32.4882 18.0468C32.8178 15.0057 32.2845 11.9332 30.9494 9.18101C29.6143 6.42882 27.5313 4.1081 24.9389 2.48444C22.3464 0.860787 19.3492 -0.000205358 16.2903 3.674e-08ZM7.66528 16.2917C7.66528 15.7833 7.86722 15.2958 8.22666 14.9364C8.58611 14.5769 9.07362 14.375 9.58195 14.375H14.3736V9.58333C14.3736 9.075 14.5755 8.58749 14.935 8.22805C15.2944 7.8686 15.7819 7.66667 16.2903 7.66667C16.7986 7.66667 17.2861 7.8686 17.6456 8.22805C18.005 8.58749 18.2069 9.075 18.2069 9.58333V14.375H22.9986C23.5069 14.375 23.9945 14.5769 24.3539 14.9364C24.7133 15.2958 24.9153 15.7833 24.9153 16.2917C24.9153 16.8 24.7133 17.2875 24.3539 17.647C23.9945 18.0064 23.5069 18.2083 22.9986 18.2083H18.2069V23C18.2069 23.5083 18.005 23.9958 17.6456 24.3553C17.2861 24.7147 16.7986 24.9167 16.2903 24.9167C15.7819 24.9167 15.2944 24.7147 14.935 24.3553C14.5755 23.9958 14.3736 23.5083 14.3736 23V18.2083H9.58195C9.07362 18.2083 8.58611 18.0064 8.22666 17.647C7.86722 17.2875 7.66528 16.8 7.66528 16.2917Z" fill="#B0D951"/>
</svg>
