<svg width="31" height="39" viewBox="0 0 31 39" fill="none" xmlns="http://www.w3.org/2000/svg">
<path d="M12.3125 28.0744L5.73353 21.4975C5.13585 20.8995 4.32511 20.5635 3.47966 20.5633C2.63421 20.5631 1.82331 20.8988 1.22534 21.4964C0.627381 22.0941 0.291337 22.9049 0.291138 23.7503C0.290939 24.5958 0.626601 25.4067 1.22428 26.0046L13.2454 38.0257C13.5414 38.322 13.8929 38.5569 14.2798 38.7172C14.6666 38.8776 15.0813 38.9601 15.5 38.9601C15.9188 38.9601 16.3335 38.8776 16.7203 38.7172C17.1072 38.5569 17.4586 38.322 17.7547 38.0257L29.7758 26.0068C30.0719 25.7107 30.3067 25.3592 30.467 24.9723C30.6272 24.5855 30.7097 24.1708 30.7097 23.7521C30.7097 23.3334 30.6272 22.9188 30.467 22.5319C30.3067 22.1451 30.0719 21.7936 29.7758 21.4975C29.4797 21.2014 29.1282 20.9666 28.7414 20.8063C28.3545 20.6461 27.9399 20.5636 27.5212 20.5636C27.1024 20.5636 26.6878 20.6461 26.301 20.8063C25.9141 20.9666 25.5626 21.2014 25.2665 21.4975L18.6875 28.0744V3.5625C18.6875 2.71712 18.3517 1.90637 17.7539 1.3086C17.1562 0.710825 16.3454 0.375 15.5 0.375C14.6547 0.375 13.8439 0.710825 13.2461 1.3086C12.6484 1.90637 12.3125 2.71712 12.3125 3.5625V28.0744Z" fill="white"/>
</svg>
