<svg width="68" height="56" viewBox="0 0 68 56" fill="none" xmlns="http://www.w3.org/2000/svg">
<path d="M59.6992 17.5467L38.3962 1.18581C37.0009 0.114414 34.6564 0.119195 33.1242 1.19152C31.5729 2.27501 31.394 4.07116 32.7727 5.20379L41.6322 12.4136H14.582C12.349 12.4146 10.2025 13.9098 9.77899 15.7624C9.34111 17.6486 10.8568 19.1953 13.1785 19.2025H26.8688L2.34176 38.0281C0.0367965 39.7919 -0.707086 42.728 0.744687 44.5843C2.21691 46.4739 5.35089 46.4777 7.67976 44.5949L21.0148 33.6822C21.0148 33.6822 20.8192 35.1543 20.8347 36.0386C21.2357 43.5032 26.9265 50.423 33.9729 53.4876C46.1146 58.8655 62.5075 53.9424 67.1172 39.9271C69.3094 32.5752 67.6288 23.8329 59.6991 17.5469M37.1162 43.6067C27.5267 38.5874 27.5266 25.9709 37.1162 20.9515C46.7058 15.9321 58.7577 22.2404 58.7577 32.2791C58.7577 42.3177 46.7058 48.626 37.1162 43.6067ZM40.0366 39.0897C33.9199 35.8906 33.9199 27.8494 40.0366 24.6503C46.1533 21.4513 53.8405 25.4718 53.8405 31.87C53.8405 38.2683 46.1531 42.2889 40.0366 39.0897Z" fill="white"/>
</svg>
