<svg width="49" height="52" viewBox="0 0 49 52" fill="none" xmlns="http://www.w3.org/2000/svg">
<path d="M34 27.8823V24.8823H37V27.8823H34Z" fill="white"/>
<path fill-rule="evenodd" clip-rule="evenodd" d="M24.5001 0.764648L48.1471 14.4863V38.2747L24.5001 51.9999L0.853027 38.2747V14.4863L24.5001 0.764648ZM20.2509 13.7155C18.6588 13.7145 17.0821 14.0258 15.6109 14.6314C14.1398 15.2369 12.8031 16.125 11.6773 17.2448C10.5515 18.3646 9.65866 19.6941 9.04982 21.1574C8.44098 22.6207 8.12809 24.1889 8.12905 25.7726V26.9884C8.12953 29.043 8.65787 31.0634 9.6639 32.8578C10.6699 34.6522 12.1203 36.1612 13.8774 37.2415C15.6344 38.3217 17.6398 38.9375 19.7034 39.0303C21.7669 39.1231 23.82 38.6899 25.6679 37.7717L27.134 37.048L25.5042 33.8094L24.0417 34.5331C22.7491 35.1775 21.3122 35.4823 19.8678 35.4185C18.4233 35.3548 17.0193 34.9246 15.7892 34.1688C14.559 33.4131 13.5437 32.3569 12.8397 31.1007C12.1357 29.8446 11.7664 28.4302 11.7671 26.992V25.7762C11.7672 24.3382 12.1368 22.9241 12.8408 21.668C13.5448 20.412 14.5598 19.3558 15.7895 18.5996C17.0192 17.8434 18.4228 17.4123 19.867 17.3473C21.3113 17.2822 22.7483 17.5853 24.0417 18.2279L25.5042 18.9552L27.134 15.7202L25.6679 14.9929C23.9867 14.1502 22.1335 13.7127 20.2509 13.7155ZM29.9571 17.3341V20.9526H26.3191V24.5712H29.9571V28.1898H26.3191V31.8083H29.9571V35.4269H33.5951V31.8083H37.2331V35.4269H40.8711V31.8083H44.5091V28.1898H40.8711V24.5712H44.5091V20.9526H40.8711V17.3341H37.2331V20.9526H33.5951V17.3341H29.9571Z" fill="white"/>
</svg>
