<svg width="18" height="24" viewBox="0 0 18 24" fill="none" xmlns="http://www.w3.org/2000/svg">
<path d="M2.08 0H3.162V1.069H4.152V0H5.234V3.236H4.152V2.153H3.162V3.236H2.081L2.08 0ZM6.656 1.073H5.704V0H8.691V1.073H7.738V3.236H6.656V1.073ZM9.165 0H10.293L10.987 1.137L11.68 0H12.808V3.236H11.731V1.632L10.987 2.783H10.968L10.223 1.633V3.236H9.165V0ZM13.346 0H14.429V2.167H15.949V3.237H13.346V0Z" fill="black"/>
<path fill-rule="evenodd" clip-rule="evenodd" d="M2.046 22.072L0 4.717H18L15.953 22.07L8.99 24L2.046 22.072ZM6.183 12.572L5.989 10.392H14.134L14.324 8.264H3.664L4.238 14.701H11.615L11.368 17.461L8.994 18.103H8.992L6.622 17.463L6.47 15.766H4.332L4.63 19.108L8.99 20.318L13.357 19.108L13.889 13.144L13.941 12.573L6.183 12.572Z" fill="black"/>
</svg>
